<?xml version="1.0" encoding="UTF-8" standalone="no"?>
<!-- Created with Inkscape (http://www.inkscape.org/) -->

<svg
   width="423.06876mm"
   height="420.42291mm"
   viewBox="0 0 423.06876 420.42291"
   version="1.1"
   id="svg1"
   xml:space="preserve"
   inkscape:version="1.4.3 (0d15f75042, 2025-12-25)"
   sodipodi:docname="shark.svg"
   xmlns:inkscape="http://www.inkscape.org/namespaces/inkscape"
   xmlns:sodipodi="http://sodipodi.sourceforge.net/DTD/sodipodi-0.dtd"
   xmlns="http://www.w3.org/2000/svg"
   xmlns:svg="http://www.w3.org/2000/svg"><sodipodi:namedview
     id="namedview1"
     pagecolor="#ffffff"
     bordercolor="#000000"
     borderopacity="0.25"
     inkscape:showpageshadow="2"
     inkscape:pageopacity="0.0"
     inkscape:pagecheckerboard="0"
     inkscape:deskcolor="#d1d1d1"
     inkscape:document-units="mm"
     inkscape:zoom="0.77147868"
     inkscape:cx="396.6409"
     inkscape:cy="561.25984"
     inkscape:window-width="1908"
     inkscape:window-height="1028"
     inkscape:window-x="0"
     inkscape:window-y="0"
     inkscape:window-maximized="1"
     inkscape:current-layer="layer1"><inkscape:page
       x="0"
       y="0"
       width="423.06876"
       height="420.42291"
       id="page2"
       margin="0"
       bleed="0" /></sodipodi:namedview><defs
     id="defs1" /><g
     inkscape:label="Layer 1"
     inkscape:groupmode="layer"
     id="layer1"
     transform="translate(55.394339,15.824084)"><path
       style="fill:#000000"
       d="M -55.394339,194.38738 V -15.824084 H 156.14004 367.67441 V 194.38738 404.59884 H 156.14004 -55.394339 Z m 244.805729,129.03544 0.46302,-0.39766 v -0.49888 c 0,-0.27438 -0.22106,-0.82147 -0.49124,-1.21576 -1.30095,-1.89855 -2.53194,-4.27502 -3.86616,-7.46376 -0.39577,-0.94589 -0.82742,-1.92654 -0.95922,-2.17923 -0.1318,-0.25268 -0.23963,-0.67932 -0.23963,-0.94809 0,-0.26876 -0.0873,-0.57593 -0.19395,-0.68261 -0.21208,-0.21207 -0.77522,-1.87346 -1.13004,-3.33382 -0.82748,-3.40577 -1.13372,-4.86438 -1.38873,-6.61459 l -0.28912,-1.98437 0.013,-4.89479 0.013,-4.8948 0.27887,-1.71979 c 0.50343,-3.10458 0.85181,-4.88437 1.08761,-5.55625 0.12767,-0.3638 0.43204,-1.37583 0.67637,-2.24896 0.45414,-1.6229 0.56479,-1.92964 1.30287,-3.61186 0.23312,-0.53131 0.42386,-1.0711 0.42386,-1.19954 0,-0.32613 3.58132,-7.42177 4.0014,-7.92794 0.35778,-0.4311 0.86914,-1.26379 1.19444,-1.94503 0.10423,-0.21828 0.26185,-0.45641 0.35026,-0.52917 0.0884,-0.0728 0.59573,-0.7962 1.12739,-1.60764 0.53165,-0.81145 1.15261,-1.6297 1.37991,-1.81834 0.22729,-0.18864 0.41475,-0.47723 0.41656,-0.64131 0.002,-0.16408 0.4483,-0.7802 0.99219,-1.36915 0.54389,-0.58896 1.33556,-1.54146 1.75927,-2.11667 1.19695,-1.62493 3.84751,-4.43268 12.85566,-13.61806 4.58391,-4.67409 8.37791,-8.54366 8.43111,-8.59904 0.19918,-0.20732 -0.52531,-1.84713 -1.07422,-2.43143 l -0.56996,-0.60669 -2.26899,0.002 c -3.32937,0.003 -10.2818,0.86665 -14.17523,1.76013 -14.34369,3.29165 -24.94242,8.63224 -34.51755,17.39306 -1.09722,1.0039 -5.50729,5.2474 -9.80015,9.43 -4.29286,4.1826 -8.57911,8.25483 -9.525,9.0494 -3.09361,2.59872 -6.44543,4.16723 -10.65886,4.98791 l -2.58907,0.50428 h -2.20492 -2.20491 l -2.3189,-0.40438 c -9.32547,-1.62623 -18.18048,-7.53259 -23.98737,-15.99978 -1.780731,-2.59653 -4.190131,-7.35662 -4.190131,-8.27815 0,-0.23203 -0.10485,-0.48667 -0.233,-0.56587 -0.12814,-0.0792 -0.29986,-0.41365 -0.38159,-0.74322 -0.0817,-0.32957 -0.3426,-1.37313 -0.57971,-2.31901 -0.66542,-2.65448 -0.9087,-4.11964 -1.21081,-7.29206 l -0.27868,-2.92644 0.27494,-3.95273 c 0.15122,-2.174 0.38517,-4.54804 0.5199,-5.27565 0.41915,-2.26366 1.45674,-6.0811 1.67801,-6.17361 0.11601,-0.0485 0.21094,-0.29916 0.21094,-0.557 0,-0.25784 0.42178,-1.23018 0.9373,-2.16076 0.51552,-0.93058 1.00566,-1.90032 1.0892,-2.15498 0.0835,-0.25466 0.25706,-0.46302 0.3856,-0.46302 0.128551,0 0.233731,-0.15005 0.233731,-0.33344 0,-0.18338 0.27402,-0.62987 0.60894,-0.99218 0.33491,-0.36232 0.69134,-0.83735 0.79206,-1.05563 0.48845,-1.05857 2.5333,-3.29765 2.78329,-3.04766 0.0486,0.0486 -0.15243,1.20075 -0.44684,2.56024 -0.2944,1.35948 -0.74477,4.13867 -1.00082,6.17596 l -0.46555,3.70416 -0.0111,6.74688 -0.0111,6.74687 0.3433,2.38125 c 0.18881,1.30969 0.52209,3.39329 0.74062,4.63021 l 0.39732,2.24896 0.66395,0.66146 0.66396,0.66146 0.51365,-0.62463 c 0.28251,-0.34354 0.51365,-0.7801 0.51365,-0.97014 0,-0.19003 0.09,-0.3852 0.19997,-0.4337 0.16917,-0.0746 0.87937,-0.95099 2.77811,-3.42812 1.4731,-1.92185 7.70706,-8.43404 8.07369,-8.43404 0.12183,0 0.62541,-0.41672 1.11907,-0.92604 0.49365,-0.50932 1.03434,-0.92604 1.20152,-0.92604 0.16718,0 0.52985,-0.2496 0.80592,-0.55466 1.31069,-1.44829 8.90303,-5.66193 13.07381,-7.25578 0.65484,-0.25025 1.42875,-0.55521 1.71979,-0.67769 0.29104,-0.12248 1.18401,-0.41655 1.98438,-0.65348 0.80036,-0.23692 1.69333,-0.53021 1.98437,-0.65174 0.6034,-0.25195 1.01184,-0.34089 5.02708,-1.09462 1.60073,-0.30048 3.14855,-0.64165 3.43959,-0.75816 0.29104,-0.11651 1.71979,-0.35499 3.175,-0.52995 1.4552,-0.17497 3.47927,-0.42038 4.49791,-0.54535 1.64748,-0.20213 4.61271,-0.55385 10.9802,-1.30243 1.09141,-0.1283 3.82984,-0.42605 6.08542,-0.66166 2.25557,-0.2356 5.11307,-0.53596 6.35,-0.66746 1.23692,-0.13149 3.87748,-0.39204 5.86791,-0.57899 1.99042,-0.18695 3.70691,-0.4292 3.81441,-0.53834 0.1075,-0.10914 0.7639,-0.19844 1.45866,-0.19844 h 1.2632 l 0.13956,-0.22581 0.13956,-0.22582 1.9069,-0.17722 c 1.04879,-0.0975 2.03481,-0.27856 2.19116,-0.40241 0.15634,-0.12385 0.64145,-0.28875 1.07801,-0.36646 1.85596,-0.33034 6.66541,-1.71221 7.9375,-2.28063 1.9167,-0.85645 2.49469,-1.08415 2.75197,-1.08415 0.15991,0 0.29074,-0.11906 0.29074,-0.26458 v -0.26459 h 0.42519 c 0.35721,0 1.7979,-0.65432 4.36174,-1.98097 0.2776,-0.14364 0.50474,-0.352 0.50474,-0.46302 0,-0.11101 0.16523,-0.20184 0.36718,-0.20184 0.20195,0 0.97299,-0.41672 1.71342,-0.92604 0.74042,-0.50932 1.4474,-0.92604 1.57106,-0.92604 0.12367,0 0.50448,-0.29766 0.84625,-0.66146 0.34178,-0.3638 0.73314,-0.66146 0.86971,-0.66146 0.29447,0 1.66834,-1.06642 3.15297,-2.4474 0.58666,-0.5457 1.15004,-0.99218 1.25195,-0.99218 0.64753,0 8.74829,-9.07011 8.74829,-9.79513 0,-0.14247 0.0904,-0.25904 0.20094,-0.25904 0.11052,0 0.35548,-0.24745 0.54436,-0.5499 l 0.34341,-0.5499 -0.33566,-0.40444 -0.33566,-0.40445 -1.20088,0.17022 c -4.56198,0.64662 -7.44199,0.97978 -10.44605,1.20839 l -3.44873,0.26245 -3.57493,-0.26917 c -12.41205,-0.93455 -20.40091,-4.5654 -34.66347,-15.75417 -3.76546,-2.95395 -7.52206,-5.45967 -10.18646,-6.79454 l -2.38124,-1.19301 -2.91041,-0.84888 -2.91042,-0.84888 -3.04271,-0.12863 c -1.67349,-0.0707 -3.21386,-0.18404 -3.42306,-0.25176 l -0.38035,-0.12314 2.23244,-2.24567 c 2.85291,-2.86983 5.80662,-4.85804 8.84701,-5.95517 0.29105,-0.10502 0.88636,-0.32239 1.32292,-0.48303 1.2889,-0.4743 3.54446,-1.01534 6.08669,-1.46001 l 2.37997,-0.41629 7.40833,0.007 7.40834,0.007 3.30729,0.26477 c 1.81901,0.14562 4.73604,0.37605 6.48229,0.51207 6.2752,0.48879 9.56659,0.75425 12.03854,0.97097 l 2.51354,0.22036 10.45104,-0.002 10.45105,-0.002 2.91041,-0.32943 c 1.60073,-0.18119 3.56526,-0.45885 4.36563,-0.61703 2.58305,-0.51051 4.88387,-1.07358 5.32524,-1.30321 0.23674,-0.12318 0.86314,-0.30513 1.39198,-0.40434 0.52885,-0.0992 1.02678,-0.28595 1.10652,-0.41497 0.0797,-0.12903 0.3777,-0.23459 0.66213,-0.23459 0.28443,0 0.72389,-0.10473 0.97657,-0.23273 0.25269,-0.128 1.75344,-0.85409 3.33501,-1.61352 2.95929,-1.42099 6.79752,-3.86934 8.28872,-5.28726 0.46505,-0.4422 0.92593,-0.804 1.02419,-0.804 0.28283,0 3.55422,-3.24921 3.55422,-3.53012 0,-0.13909 0.39304,-0.6346 0.87342,-1.10114 0.48038,-0.46654 1.28098,-1.37154 1.7791,-2.0111 0.49813,-0.63957 0.96829,-1.22238 1.04481,-1.29514 0.26346,-0.25052 0.81626,-1.19154 0.97142,-1.65365 0.0855,-0.25466 0.24084,-0.46302 0.34518,-0.46302 0.10434,0 0.53694,-0.68427 0.96133,-1.52059 0.42439,-0.83633 0.93015,-1.68798 1.12392,-1.89255 0.19376,-0.20458 0.69534,-1.09789 1.11461,-1.98514 0.41927,-0.88725 0.9332,-1.91083 1.14206,-2.27463 1.20261,-2.09476 3.87332,-9.45976 3.87332,-10.68143 0,-0.3244 0.14883,-0.73856 0.33073,-0.92035 l 0.33073,-0.33053 v -5.47707 -5.47708 l -0.73194,-1.07791 -0.73195,-1.077901 -1.51701,-0.69507 -1.51702,-0.69506 -2.38125,-0.53833 c -3.39696,-0.76796 -13.67254,-2.621582 -17.727,-3.197811 -17.67005,-2.511303 -26.71384,-3.092177 -51.99063,-3.339308 l -15.47812,-0.15133 -8.0698,0.425732 c -11.99476,0.6328 -17.38284,1.148305 -33.33748,3.189563 -7.37324,0.943341 -16.15556,2.607214 -21.09923,3.997404 -1.78192,0.50108 -3.38927,0.91104 -3.57188,0.91102 -0.36193,0.001 -3.29715,-1.88321 -6.02055,-3.863808 C 107.83253,89.111745 93.914519,82.344826 82.056709,78.753128 74.267528,76.393807 67.849148,75.112639 57.318168,73.81509 l -2.778129,-0.3423 -7.67291,0.0099 -7.67292,0.0099 -2.38125,0.343318 c -2.27674,0.328251 -3.04321,0.484039 -5.427433,1.103143 l -1.061807,0.275717 -0.922568,0.810025 -0.922568,0.810026 v 0.727961 0.727962 l 1.395749,1.29515 c 0.767662,0.712333 2.345237,2.009526 3.505727,2.882651 1.16049,0.873125 3.63935,3.075781 5.50857,4.894791 l 3.39859,3.307292 2.18779,2.778125 c 2.96217,3.761458 4.7842,6.624649 6.81903,10.715629 l 1.71083,3.43958 0.94398,2.77812 c 1.00014,2.94342 1.54672,5.05039 2.09343,8.0698 l 0.335339,1.85208 0.007,4.63021 0.007,4.63021 -0.629829,1.85208 c -0.34641,1.01865 -1.10868,2.74505 -1.69392,3.83646 -1.04769,1.95383 -4.52558,7.20623 -6.65739,10.05417 -2.18234,2.91545 -6.12898,9.51516 -8.23533,13.77138 -2.30432,4.65627 -5.25172,12.57429 -6.29839,16.92029 -1.408236,5.84727 -2.124274,9.9858 -2.683457,15.50975 l -0.425334,4.20171 0.0073,7.34704 0.0073,7.34705 -1.012046,1.91337 c -0.556624,1.05235 -1.282387,2.38962 -1.612806,2.9717 -0.330419,0.58209 -1.431869,2.54662 -2.447667,4.36563 -2.846939,5.09807 -6.349378,10.89494 -7.273627,12.03854 -0.117608,0.14552 -0.903893,1.25422 -1.7473,2.46377 l -1.533466,2.19918 0.164715,0.74995 c 0.09059,0.41246 0.389947,0.95377 0.66523,1.2029 l 0.500515,0.45296 1.402718,-0.27672 c 0.771494,-0.15219 2.117092,-0.47355 2.990217,-0.71413 0.873125,-0.24058 1.914922,-0.49965 2.315104,-0.57571 0.400182,-0.0761 0.727604,-0.23033 0.727604,-0.34281 0,-0.11248 0.533006,-0.28444 1.184458,-0.38213 0.651452,-0.0977 1.253791,-0.28981 1.338532,-0.42692 0.08474,-0.13711 0.437676,-0.2493 0.784302,-0.2493 0.346625,0 0.703813,-0.11906 0.79375,-0.26458 0.08994,-0.14552 0.424385,-0.26532 0.743219,-0.26621 0.318834,-9e-4 0.920729,-0.17949 1.337545,-0.39688 0.416817,-0.21738 0.924448,-0.39524 1.12807,-0.39524 0.203621,0 0.576965,-0.10828 0.829652,-0.24061 0.788578,-0.41297 6.265532,-2.40523 6.612282,-2.40523 0.18119,0 0.32944,-0.11906 0.32944,-0.26458 0,-0.14552 0.13084,-0.26458 0.29074,-0.26458 0.15991,0 0.66593,-0.16585 1.12448,-0.36855 0.45856,-0.2027 1.01233,-0.44007 1.23062,-0.52748 0.21828,-0.0874 0.57546,-0.26431 0.79374,-0.3931 0.21829,-0.12879 0.8136,-0.43073 1.32292,-0.67097 1.09347,-0.51577 2.98665,-1.55572 3.175,-1.74407 0.0728,-0.0728 0.54901,-0.33992 1.05833,-0.59368 0.50933,-0.25377 1.10464,-0.57036 1.32292,-0.70355 0.21828,-0.13318 1.20179,-0.7257 2.18558,-1.3167 0.98379,-0.591 1.93629,-1.193 2.11667,-1.33777 0.18038,-0.14478 0.7604,-0.62456 1.28893,-1.06618 0.52853,-0.44163 1.08416,-0.80295 1.23472,-0.80295 0.15057,0 0.31344,-0.0893 0.36195,-0.19844 0.0485,-0.10914 1.040419,-1.03188 2.204249,-2.05052 1.16383,-1.01865 2.71165,-2.40197 3.43958,-3.07405 0.72794,-0.67209 1.77001,-1.60716 2.31572,-2.07793 0.5457,-0.47078 0.99219,-0.95715 0.99219,-1.08082 0,-0.26782 2.35858,-2.63074 2.62591,-2.63074 0.10202,0 0.52771,-0.35719 0.94596,-0.79375 0.41825,-0.43657 0.90079,-0.79375 1.07231,-0.79375 h 0.31184 l -0.46043,1.65364 c -1.37077,4.92307 -3.36303,9.72029 -5.24678,12.63386 -3.76281,5.81985 -8.106329,9.70358 -16.147999,14.4386 -1.21815,0.71726 -2.27296,1.45366 -2.34403,1.63645 l -0.12922,0.33235 1.65337,3.23952 c 4.30269,8.43049 7.8559,13.73391 13.233729,19.7523 1.50959,1.68941 7.25714,7.19239 9.00584,8.62265 2.4373,1.99345 3.42787,2.7564 4.47533,3.44693 0.65484,0.4317 1.25016,0.85372 1.32292,0.93781 0.22975,0.26554 3.402881,2.36214 3.575011,2.36214 0.0905,0 0.54347,0.28874 1.0067,0.64166 0.46323,0.35291 2.98537,1.73814 5.60474,3.07828 l 4.7625,2.43663 3.70417,1.45273 c 4.27073,1.67492 7.009841,2.60643 9.260421,3.14925 0.87312,0.2106 2.06375,0.50312 2.64583,0.65006 5.971,1.50729 10.52431,1.97531 22.83276,2.34692 l 9.6036,0.28995 0.66623,0.2533 c 0.36643,0.13931 1.01326,0.2533 1.43741,0.2533 1.28859,0 4.01485,1.12815 6.07252,2.51285 0.75741,0.5097 1.459,0.92673 1.55907,0.92673 0.10008,0 1.96335,1.87296 4.1406,4.16214 8.14261,8.56118 12.79108,13.032 15.20433,14.62328 0.33103,0.21828 0.91273,0.63887 1.29267,0.93464 0.79292,0.61727 2.8213,1.96071 3.60122,2.38517 5.87623,3.19808 10.37829,4.86788 15.21354,5.64266 1.33252,0.21352 1.77447,0.13321 2.4474,-0.44474 z M 104.28171,186.7422 C 95.053609,184.15108 88.437749,176.49534 85.747579,165.29488 l -0.63829,-2.6575 -0.26184,-3.00694 -0.26183,-3.00694 0.27252,-2.81389 0.27252,-2.81389 0.66914,-2.84522 0.66915,-2.84521 1.13029,-2.31416 1.13029,-2.31417 1.58358,-2.11667 c 1.54332,-2.06286 2.72381,-3.32974 2.72381,-2.92313 0,0.11088 -0.25048,2.0641 -0.55662,4.34049 l -0.55662,4.1389 0.13991,5.42396 0.13991,5.42396 0.52391,3.175 c 0.93297,5.65397 2.37044,10.48592 4.43281,14.90057 2.08372,4.46037 4.376531,7.83176 8.265041,12.15307 l 1.96419,2.18281 -0.49554,-0.0197 c -0.27254,-0.0108 -1.44803,-0.28715 -2.6122,-0.61403 z m 21.29674,-3.85588 c -6.21483,-2.67412 -10.7966,-6.32941 -14.56257,-11.61787 l -1.62437,-2.28107 -1.14824,-2.38125 c -1.23847,-2.56837 -1.88672,-4.40426 -2.94283,-8.33437 l -0.67544,-2.51354 -0.13546,-4.49792 -0.13545,-4.49792 0.4368,-2.5053 c 0.61883,-3.54927 1.29513,-5.5974 2.91623,-8.8315 l 1.41586,-2.82466 1.41582,-1.65052 c 0.77871,-0.90779 2.11862,-2.30537 2.97759,-3.10573 l 1.56176,-1.45521 -0.18258,0.66146 c -0.55866,2.02389 -1.49265,7.12864 -1.76694,9.65729 l -0.31571,2.91041 0.15245,4.10105 0.15245,4.10105 0.53399,3.1884 c 1.82455,10.89412 6.08595,21.19691 12.39593,29.96968 1.08038,1.50205 1.92328,2.76366 1.87311,2.80358 -0.0502,0.0399 -1.10425,-0.3633 -2.3424,-0.89606 z m 62.38459,-48.00769 c -2.4833,-0.71733 -4.8735,-2.58018 -6.19588,-4.82886 -0.73512,-1.25007 -1.08414,-2.29039 -1.39981,-4.17248 l -0.21904,-1.30592 0.21079,-1.69962 0.21078,-1.69962 0.82218,-1.6701 0.82219,-1.6701 1.42457,-1.30197 c 1.70933,-1.56224 2.75553,-2.08874 5.13723,-2.58534 l 1.79837,-0.37497 1.48235,0.24126 1.48236,0.24126 1.54108,0.72843 1.54107,0.72843 1.33655,1.33917 1.33655,1.33917 0.76386,1.85209 0.76386,1.85208 0.0163,2.51354 0.0163,2.51354 -0.94919,1.98438 -0.94919,1.98437 -1.18381,1.21567 -1.1838,1.21566 -1.73141,0.85237 -1.73141,0.85237 -1.95643,0.10812 -1.95643,0.10812 z m 49.20855,40.26031 c 0.14637,-0.1819 0.58406,-0.92604 0.97263,-1.65364 0.9715,-1.81913 1.16663,-2.17828 1.47349,-2.71198 0.14641,-0.25466 0.47384,-0.87974 0.7276,-1.38906 0.25376,-0.50933 0.52092,-0.98558 0.59368,-1.05834 0.0728,-0.0728 0.39979,-0.66807 0.72674,-1.32291 0.32694,-0.65485 1.01155,-1.95987 1.52135,-2.90004 0.5098,-0.94018 0.92691,-1.90971 0.92691,-2.15451 v -0.44509 l -0.42429,-0.16281 -0.42429,-0.16282 -5.06581,0.27696 c -2.7862,0.15232 -5.6909,0.34048 -6.45488,0.41813 l -1.38906,0.14117 v 0.6761 0.6761 l 0.77497,1.61996 c 0.42624,0.89099 1.56769,3.34638 2.53656,5.45643 0.96887,2.11005 1.93256,4.10435 2.14154,4.43177 0.42261,0.66214 0.95913,0.7663 1.36286,0.26458 z m -20.88861,-1.77522 c 0.31841,-0.43067 0.57893,-0.88847 0.57893,-1.01733 0,-0.12886 0.23812,-0.44979 0.52916,-0.71317 0.29105,-0.26339 0.52917,-0.59214 0.52917,-0.73054 0,-0.13841 0.35719,-0.70263 0.79375,-1.25384 0.43656,-0.5512 0.79375,-1.08693 0.79375,-1.19051 0,-0.10357 0.29945,-0.56268 0.66545,-1.02025 1.05674,-1.32115 1.07104,-1.34084 1.2765,-1.75799 0.24604,-0.49955 0.70347,-1.24874 1.33157,-2.18088 l 0.48898,-0.72568 -0.16052,-0.63956 -0.16052,-0.63955 -2.18375,-0.14392 c -5.53663,-0.36488 -10.68018,-0.5947 -10.98115,-0.49064 l -0.33073,0.11435 v 0.53425 c 0,0.46332 0.95369,2.66946 4.54719,10.51887 1.07919,2.35731 1.392,2.54048 2.28222,1.33639 z m -20.93107,-3.5022 c 0.47988,-0.46511 0.8725,-0.94638 0.8725,-1.0695 0,-0.12312 0.11492,-0.36765 0.25538,-0.54341 1.31565,-1.6463 1.76677,-2.23372 1.99358,-2.59596 0.14552,-0.23241 0.5871,-0.88686 0.9813,-1.45433 0.3942,-0.56748 1.19787,-1.72839 1.78594,-2.57982 l 1.06921,-1.54804 v -0.62973 -0.62972 l -0.59531,-0.1159 c -0.32742,-0.0637 -2.14312,-0.25429 -4.03489,-0.42343 -1.89178,-0.16914 -4.38896,-0.41691 -5.54931,-0.5506 -1.16035,-0.13369 -2.45318,-0.24307 -2.87296,-0.24307 h -0.76323 l 0.15647,0.62342 c 0.22164,0.88307 4.92415,11.87547 5.25121,12.27501 0.38125,0.46575 0.47132,0.43376 1.45011,-0.51492 z"
       id="path1" /></g></svg>
