<?xml version="1.0" encoding="UTF-8" standalone="no"?>
<!-- Created with Inkscape (http://www.inkscape.org/) -->

<svg
   version="1.1"
   id="svg1"
   width="1008.1344"
   height="946.75195"
   viewBox="0 0 1008.1344 946.75195"
   sodipodi:docname="WhatsApp Image 2026-01-25 at 07.22.44.jpeg"
   inkscape:export-batch-name="WhatsApp Image 2026-01-25 at 07.22.44"
   inkscape:export-batch-path="/home/mircas001/Downloads"
   xmlns:inkscape="http://www.inkscape.org/namespaces/inkscape"
   xmlns:sodipodi="http://sodipodi.sourceforge.net/DTD/sodipodi-0.dtd"
   xmlns="http://www.w3.org/2000/svg"
   xmlns:svg="http://www.w3.org/2000/svg">
  <defs
     id="defs1" />
  <sodipodi:namedview
     id="namedview1"
     pagecolor="#ffffff"
     bordercolor="#000000"
     borderopacity="0.25"
     inkscape:showpageshadow="2"
     inkscape:pageopacity="0.0"
     inkscape:pagecheckerboard="0"
     inkscape:deskcolor="#d1d1d1" />
  <g
     inkscape:groupmode="layer"
     inkscape:label="Image"
     id="g1"
     transform="translate(-263.3656,-337.53045)">
    <path
       style="fill:#ececec"
       d="m 916,1283.8739 c -18.27498,-2.9283 -35.29063,-9.2394 -57.5,-21.3266 -2.94771,-1.6042 -10.61404,-6.6818 -13.61089,-9.0148 -1.43599,-1.1179 -3.63456,-2.7075 -4.88571,-3.5325 -9.12097,-6.0143 -26.68998,-22.9119 -57.46519,-55.2691 C 774.30922,1186.0789 767.26694,1179 766.8887,1179 c -0.37825,0 -3.0299,-1.5762 -5.89257,-3.5026 -7.777,-5.2335 -18.08098,-9.4974 -22.95127,-9.4974 -1.60306,0 -4.04778,-0.4308 -5.4327,-0.9574 -1.38493,-0.5265 -18.85172,-1.4505 -38.8151,-2.0532 -46.52014,-1.4045 -63.72951,-3.1734 -86.29706,-8.8702 -2.2,-0.5554 -6.7,-1.661 -10,-2.4569 -16.85421,-4.0652 -44.07244,-14.8723 -67,-26.6027 -9.9,-5.0651 -19.43248,-10.3006 -21.18328,-11.6344 -1.7508,-1.3339 -3.46299,-2.4252 -3.80487,-2.4252 -0.65055,0 -12.64348,-7.9242 -13.51185,-8.9278 -0.275,-0.3178 -2.525,-1.9128 -5,-3.5444 -3.95891,-2.6099 -7.70281,-5.4935 -16.91462,-13.0278 -6.60928,-5.4057 -28.33228,-26.2044 -34.03784,-32.5895 -14.56807,-16.3033 -31.64893,-40.031 -40.24829,-55.9105 -8.99016,-16.60112 -15.9738,-31.10123 -15.52952,-32.24389 0.26861,-0.69086 4.25531,-3.47412 8.85933,-6.18501 30.39371,-17.89615 46.81016,-32.5748 61.0318,-54.5711 7.11969,-11.01189 14.6495,-29.14311 19.83035,-47.75 1.99735,-7.17344 1.08309,-8.02454 -3.49121,-3.25 -1.5808,1.65 -3.18968,3 -3.57529,3 -1.01037,0 -9.92471,8.93074 -9.92471,9.94297 0,0.46741 -1.6875,2.30565 -3.75,4.08497 -2.0625,1.77932 -6.00104,5.31344 -8.7523,7.85359 -2.75127,2.54016 -8.60127,7.76847 -13,11.61847 -4.39874,3.85 -8.1477,7.3375 -8.33103,7.75 -0.18334,0.4125 -0.79893,0.75 -1.36799,0.75 -0.56906,0 -2.66906,1.36565 -4.66666,3.03478 -1.99761,1.66913 -4.18981,3.48247 -4.87155,4.02965 -0.68174,0.54717 -4.28174,2.82244 -8,5.05615 -3.71826,2.23371 -7.43547,4.47314 -8.26047,4.97652 -0.825,0.50338 -3.075,1.69996 -5,2.65907 -1.925,0.9591 -3.725,1.96883 -4,2.24383 -0.71187,0.71187 -7.86722,4.64241 -12,6.59178 -1.925,0.90799 -4.175,2.04915 -5,2.53592 -0.825,0.48677 -2.175,1.15534 -3,1.48573 -0.825,0.33038 -2.91801,1.22752 -4.65113,1.99363 -1.73312,0.76612 -3.64562,1.39294 -4.25,1.39294 -0.60438,0 -1.09887,0.45 -1.09887,1 0,0.55 -0.56031,1 -1.24513,1 -1.31054,0 -22.01085,7.52978 -24.9913,9.09063 -0.95504,0.50016 -2.3661,0.90937 -3.13569,0.90937 -0.7696,0 -2.6882,0.67223 -4.26357,1.49384 -1.57537,0.82161 -3.85025,1.49661 -5.05529,1.5 -1.20504,0.003 -2.4691,0.45616 -2.80902,1.00616 -0.33992,0.55 -1.68992,1 -3,1 -1.31008,0 -2.64401,0.424 -2.96429,0.94222 -0.32028,0.51822 -2.59684,1.24432 -5.05902,1.61355 -2.46218,0.36922 -4.47669,1.01915 -4.47669,1.44427 0,0.42513 -1.2375,1.00818 -2.75,1.29567 -1.5125,0.28749 -5.45,1.26665 -8.75,2.17592 -12.67815,3.49329 -16.42606,3.90526 -18.49493,2.03296 -4.09702,-3.70775 -3.5831,-6.74077 2.65898,-15.69271 3.18768,-4.57153 6.15946,-8.76188 6.60397,-9.31188 3.49322,-4.32228 16.73079,-26.2317 27.49087,-45.5 3.83924,-6.875 8.0022,-14.3 9.25103,-16.5 1.24882,-2.2 3.99186,-7.25424 6.09564,-11.23164 l 3.82506,-7.23163 -0.0277,-27.76837 c -0.0405,-40.55921 2.77402,-65.11456 11.722,-102.26836 3.95594,-16.42582 15.09571,-46.3522 23.80496,-63.95071 7.96098,-16.0865 22.87745,-41.03029 31.12565,-52.04929 8.05722,-10.76387 21.20199,-30.61545 25.16179,-38 7.71049,-14.37915 8.78633,-19.17141 8.75527,-39 -0.0345,-22.00418 -2.01453,-33.83252 -9.20704,-55 -4.26768,-12.55976 -14.3969,-33.26081 -22.01892,-45 -13.46103,-20.73224 -37.37369,-46.69564 -55.72136,-60.5 -19.15606,-14.41258 -21.68916,-18.51488 -15.0384,-24.35433 4.22924,-3.71332 11.70913,-5.92231 28.01313,-8.27295 12.13602,-1.74972 63.51526,-1.80208 77.5,-0.079 39.80213,4.90412 64.06058,9.74633 93.5,18.66345 44.81691,13.57492 97.42041,39.15068 131.5,63.93514 10.29317,7.48574 21.38693,14.6074 22.75488,14.60755 0.69019,7e-5 6.76519,-1.54939 13.5,-3.44326 18.68475,-5.25424 51.87777,-11.5429 79.74512,-15.10828 92.03892,-11.77558 127.67981,-13.94589 215,-13.09216 95.5343,0.93404 129.7156,3.12947 196.5,12.62101 7.9047,1.12343 24.5478,3.96393 44.5,7.59487 32.0486,5.83228 41.0465,8.95148 45.7336,15.85398 L 1271.5,444.5 v 20.70077 c 0,15.22769 -0.3305,21.03105 -1.25,21.95 -0.6875,0.68708 -1.25,2.2524 -1.25,3.47851 0,4.6173 -10.094,32.45354 -14.6393,40.37072 -0.7894,1.375 -2.7318,5.24367 -4.3165,8.59705 -1.5846,3.35338 -3.4803,6.72967 -4.2127,7.50287 -0.7323,0.7732 -2.6439,3.99203 -4.2478,7.15295 -1.604,3.16092 -3.2391,5.74713 -3.6334,5.74713 -0.3944,0 -0.9815,0.7875 -1.3046,1.75 -0.5865,1.74655 -2.6758,5.30317 -3.6715,6.25 -0.2893,0.275 -2.0662,2.47776 -3.9489,4.89502 -1.8827,2.41726 -4.9086,5.83771 -6.7242,7.60102 -1.8156,1.7633 -3.3011,3.63609 -3.3011,4.16176 0,1.06174 -12.3643,13.3422 -13.4333,13.3422 -0.3713,0 -2.1133,1.36743 -3.8709,3.03872 -5.6361,5.35908 -20.1427,14.61268 -31.3275,19.98334 -5.9776,2.8703 -11.6497,5.61454 -12.6047,6.09833 -0.9551,0.48379 -2.616,0.87961 -3.691,0.87961 -1.075,0 -2.2012,0.39899 -2.5025,0.88664 -0.3014,0.48765 -2.1834,1.19343 -4.1822,1.56841 -1.9987,0.37497 -4.3662,1.06266 -5.261,1.5282 -1.6682,0.8679 -10.3642,2.99602 -20.1269,4.92551 -14.0656,2.77991 -28.9741,3.57745 -67,3.58421 -21.725,0.004 -43.775,-0.36776 -49,-0.82583 -9.34282,-0.81908 -21.78272,-1.82242 -45.5,-3.6698 -6.6,-0.51408 -17.625,-1.38501 -24.5,-1.93539 -20.51961,-1.64271 -66.91558,-1.3327 -77.49516,0.51781 -9.60844,1.68064 -18.13338,3.7255 -23.00484,5.51813 -1.65,0.60717 -3.9,1.42871 -5,1.82565 -4.72913,1.70649 -14.41196,6.80799 -19.5,10.27377 -7.56162,5.15069 -22.81004,20.58071 -20.93755,21.18691 0.79065,0.25597 6.61255,0.68417 12.93755,0.95156 25.74983,1.08858 48.2251,11.3806 81,37.09204 53.90574,42.28828 84.09985,56.01118 131.0115,59.54335 17.0845,1.28636 32.2871,0.24063 66.0273,-4.54178 5.5735,-0.79001 7.9318,1.0435 5.7781,4.49225 -0.7139,1.1431 -1.6397,2.07836 -2.0574,2.07836 -0.4177,0 -0.7595,0.44058 -0.7595,0.97907 0,2.7402 -30.6171,37.02093 -33.0644,37.02093 -0.3852,0 -2.5145,1.6875 -4.7318,3.75 -5.6112,5.21944 -10.8038,9.25 -11.9167,9.25 -0.5162,0 -1.9954,1.125 -3.2871,2.5 -1.2917,1.375 -2.731,2.5 -3.1984,2.5 -0.4674,0 -3.1395,1.575 -5.9379,3.5 -2.7985,1.925 -5.7126,3.5 -6.4759,3.5 -0.7633,0 -1.3878,0.34329 -1.3878,0.76287 0,0.41958 -0.8585,1.20708 -1.9077,1.75 C 1002.4022,843.52698 996.95711,846 995.60703,846 994.72316,846 994,846.45 994,847 c 0,0.55 -0.49449,1 -1.09887,1 -0.97238,0 -3.15691,0.86061 -10.40113,4.09759 -4.80792,2.14836 -22.98537,7.37117 -30,8.61971 -1.65,0.29368 -3.48347,0.91695 -4.07438,1.38503 -0.59091,0.46808 -4.31761,1.15249 -8.28155,1.5209 -3.96394,0.36841 -7.44452,1.05389 -7.73463,1.5233 -0.29011,0.46941 -2.67592,0.85347 -5.30179,0.85347 -2.62587,0 -5.10675,0.3375 -5.51305,0.75 -0.4063,0.4125 -6.8938,1.32811 -14.41667,2.03468 -7.52286,0.70658 -17.50293,1.69133 -22.17793,2.18833 -4.675,0.497 -15.475,1.63221 -24,2.52268 -8.525,0.89047 -18.875,2.01582 -23,2.50076 -24.06613,2.82926 -35.27332,4.1586 -41.5,4.92255 -3.85,0.47235 -11.5,1.39987 -17,2.06116 -5.5,0.66129 -10.9,1.56263 -12,2.00297 -1.1,0.44034 -6.95,1.72982 -13,2.8655 -15.17571,2.84873 -16.71945,3.18487 -19,4.13715 -1.1,0.45932 -4.475,1.56779 -7.5,2.46327 -3.025,0.89548 -6.4,2.0069 -7.5,2.46983 -1.1,0.46293 -4.025,1.61554 -6.5,2.56135 -15.76357,6.02399 -44.45905,21.94958 -49.41281,27.42342 -1.04344,1.15299 -2.41415,2.09635 -3.04601,2.09635 -0.63187,0 -2.6754,1.575 -4.54118,3.5 -1.86578,1.925 -3.76908,3.5 -4.22955,3.5 -1.3857,0 -24.94709,24.61298 -30.51475,31.87666 -7.17631,9.36239 -9.86055,12.67469 -10.49992,12.95667 -0.41568,0.18334 -0.75578,0.92098 -0.75578,1.63922 0,0.71823 -0.87362,2.36823 -1.94137,3.66667 L 607.11726,988.5 604.60783,986 c -1.91707,-1.90988 -2.8639,-4.50642 -4.01111,-11 -3.55534,-20.12423 -4.09581,-27.05515 -4.05492,-52 0.0442,-26.93749 1.5997,-44.4435 5.58401,-62.84221 1.1127,-5.13822 1.87267,-9.49264 1.68882,-9.67649 -0.94483,-0.94483 -8.67339,7.51783 -10.5195,11.5187 -0.38068,0.825 -1.72781,2.6204 -2.99364,3.98978 -1.26582,1.36938 -2.30149,3.05688 -2.30149,3.75 0,0.69312 -0.39752,1.26022 -0.88337,1.26022 -0.48585,0 -1.14169,0.7875 -1.45742,1.75 -0.31573,0.9625 -2.16821,4.62766 -4.11663,8.14481 -1.94842,3.51714 -3.54258,7.19214 -3.54258,8.16666 0,0.97453 -0.35876,1.92186 -0.79724,2.1052 -0.83628,0.34965 -4.75789,14.77775 -6.34208,23.33333 -0.5092,2.75 -1.39344,11.72276 -1.96498,19.93946 -1.35257,19.44532 0.003,35.25981 4.59043,53.56054 0.89618,3.575 1.88215,7.51915 2.19104,8.76478 0.3089,1.24563 0.9579,2.50968 1.44223,2.80901 0.48433,0.29934 0.8806,1.26181 0.8806,2.13871 0,3.483 9.10641,21.4738 15.83672,31.2875 14.4086,21.0096 33.58179,37.8097 55.66328,48.7739 24.16839,12.0003 47.45075,15.754 70.21454,11.3201 15.92479,-3.1017 28.59307,-9.03 40.28546,-18.8519 3.575,-3.0031 19.775,-18.3942 36,-34.2024 16.225,-15.8083 32.89297,-31.8467 37.03993,-35.641 36.18951,-33.11174 76.24769,-53.29666 130.46007,-65.73753 14.71533,-3.37693 40.9922,-6.63973 53.5757,-6.65248 7.6541,-0.008 8.8072,0.23772 10.7299,2.28433 2.0746,2.20835 4.8128,8.40608 4.06,9.18964 -0.2011,0.20931 -14.5406,14.83444 -31.8656,32.5003 -34.04656,34.71644 -44.06443,45.32834 -48.58831,51.46984 -1.60143,2.174 -4.59358,5.774 -6.64922,8 -2.05565,2.226 -3.74315,4.5546 -3.75,5.1748 -0.007,0.6201 -0.71534,1.7108 -1.57441,2.4238 -0.85907,0.713 -3.20601,3.8056 -5.21543,6.8725 -2.00941,3.0668 -3.92686,5.8011 -4.261,6.0761 -0.33413,0.275 -0.92984,1.175 -1.32379,2 -1.2295,2.5748 -3.16219,5.722 -4.51444,7.3513 -1.5877,1.9131 -15.1234,28.7312 -15.1234,29.9639 0,0.4854 -0.72088,2.5255 -1.60196,4.5337 -2.78962,6.358 -3.20781,7.5173 -4.92426,13.6511 -0.92345,3.3 -2.07382,7.125 -2.55637,8.5 -0.89118,2.5394 -2.20791,9.2662 -4.11062,21 -1.39783,8.6203 -1.43629,41.551 -0.0596,51 0.96381,6.615 2.12123,12.1278 5.24872,25 1.34105,5.5195 3.46947,11.7988 4.27101,12.6003 0.40317,0.4032 0.73304,1.5641 0.73304,2.5799 0,1.0158 0.40757,2.6283 0.90571,3.5834 0.49813,0.955 2.12956,4.6614 3.6254,8.2364 5.04271,12.0519 9.69527,21.0339 14.61224,28.2095 2.32631,3.3949 2.36173,6.0467 0.10665,7.9835 -2.54334,2.1844 -4.21371,2.4879 -9.25,1.6809 z M 607.82208,759.75 C 584.9245,734.30386 572.3446,710.84899 563.97585,678 557.22376,651.49671 555.21442,616.23431 558.89625,588.85694 560.05331,580.25325 561,572.87101 561,572.45195 c 0,-3.71763 -15.20269,16.84261 -20.55186,27.7945 -11.04805,22.61977 -13.81305,55.925 -6.9984,84.29763 10.16758,42.33246 35.17239,71.26752 70.05026,81.06074 12.55264,3.52461 12.64704,3.39674 4.32208,-5.85482 z m 77.94324,-15.9281 C 656.0218,702.46951 638.12274,651.49225 636.32014,603 c -0.75213,-20.23321 1.96339,-43.68393 7.29522,-63 0.57541,-2.08461 -0.2907,-1.58614 -5.21264,3 -10.24192,9.54316 -16.41718,17.60168 -21.9563,28.65227 -10.00204,19.95416 -12.92858,34.35662 -12.16092,59.84773 0.52739,17.51226 1.70087,23.96195 7.73261,42.5 9.15107,28.12507 30.16351,54.03546 55.97349,69.02079 7.23786,4.20231 24.14906,11.95756 24.85317,11.39732 0.18963,-0.15087 -2.99613,-4.91917 -7.07945,-10.59621 z M 945.83269,566.91083 c 8.48018,-4.17477 14.61511,-10.57691 19.07982,-19.91083 3.36211,-7.02882 3.58363,-8.09682 3.52605,-17 -0.0524,-8.10413 -0.48565,-10.52854 -2.94848,-16.5 -6.93975,-16.82636 -25.17512,-26.67741 -42.64136,-23.0356 -9.00169,1.87691 -12.95582,3.86685 -19.4163,9.77135 -16.70498,15.26742 -17.06778,42.8207 -0.77833,59.11016 11.7677,11.76769 28.63778,14.72335 43.1786,7.56492 z M 1100.61,720.75 c -0.7898,-1.2375 -4.4321,-8.775 -8.094,-16.75 -3.6618,-7.975 -7.976,-17.25522 -9.587,-20.62271 -1.6109,-3.3675 -2.929,-7.27262 -2.929,-8.67805 0,-2.3482 0.4256,-2.59858 5.25,-3.0889 11.3587,-1.15441 43.6328,-2.59255 45.1464,-2.01173 2.4034,0.92228 1.97,3.30404 -1.8997,10.44061 -1.9268,3.55343 -4.5143,8.48578 -5.75,10.96078 -1.2357,2.475 -2.4717,4.725 -2.7467,5 -0.275,0.275 -1.2847,2.075 -2.2438,4 -0.9591,1.925 -2.1966,4.2875 -2.75,5.25 -1.1598,2.01713 -1.8973,3.37456 -5.5691,10.25 -4.4723,8.37427 -6.1834,9.392 -8.8271,5.25 z m -78.2814,-3.52576 c -0.6443,-0.40983 -2.5084,-3.66544 -4.1424,-7.23469 -18.1248,-39.59076 -18.7461,-41.23625 -15.9362,-42.20775 1.1375,-0.39329 20.5777,0.4753 41.5036,1.85439 7.6895,0.50677 8.295,0.70911 8.8602,2.96116 0.3866,1.54048 -0.064,3.41201 -1.2414,5.15994 -2.374,3.52308 -4.1028,6.35465 -5.0328,8.24271 -0.7765,1.57662 -0.8305,1.65105 -4.8245,6.64436 -1.3833,1.72939 -2.5151,3.46463 -2.5151,3.85609 0,0.39146 -1.35,2.41626 -3,4.49955 -1.65,2.08329 -3,4.21581 -3,4.73892 0,0.52311 -0.9,1.76559 -2,2.76108 -1.1,0.99549 -2,2.20845 -2,2.69548 0,1.0892 -4.1612,6.81038 -4.9381,6.78921 -0.309,-0.008 -1.089,-0.35063 -1.7333,-0.76045 z M 942.22165,703.75 c -1.23613,-1.51008 -19.0094,-43.05615 -19.84709,-46.39375 -0.69807,-2.78137 0.42381,-2.904 13.15167,-1.43754 4.38558,0.50528 13.82377,1.44174 20.97377,2.08101 7.15,0.63927 14.0125,1.35943 15.25,1.60035 3.43058,0.66787 2.83302,4.35404 -1.79113,11.04905 -2.22262,3.21798 -5.26012,7.6057 -6.75,9.75047 -1.48988,2.14478 -3.15887,4.6183 -3.70887,5.49671 -0.85722,1.36908 -2.56222,3.58927 -7.53478,9.81149 C 951.43435,696.37208 951,697.29631 951,697.76163 951,698.69501 944.75007,705 943.82484,705 c -0.31897,0 -1.04041,-0.5625 -1.60319,-1.25 z"
       id="path1" />
  </g>
</svg>
